<svg xmlns="http://www.w3.org/2000/svg" viewBox="0 0 640 480">
  <g fill-rule="evenodd">
    <path fill="#009b3a" d="M0 0h640v480H0z"/>
    <path fill="#fedf00" d="M321.4 436.7L30.5 240 321.4 43.3 612.4 240 321.4 436.7z"/>
    <circle cx="321.4" cy="240" r="124.2" fill="#002776"/>
    <path fill="#fff" d="M329.2 173.2l82.6 169.5-158.6 1.2 76-170.7z"/>
    <path fill="#fff" d="M394.1 285.8c-51.9 65.7-155.7 32.3-155.7-59.4.1-77.5 77.4-132.5 154.7-59.5 16.7-13.4 31.2-31.1 41.2-48.5-51.7-48.2-135.9-46.4-186.4 4.6-61.5 62-60.4 162.6 2.4 223.5 62.8 60.9 163.2 59.1 223.2-4.1 13.9-14.6 27.1-30.7 31.6-48.5-41.1 8.7-77.5 13.2-111 8z"/>
  </g>
</svg>