<svg xmlns="http://www.w3.org/2000/svg" viewBox="0 0 640 480">
  <g fill-rule="evenodd">
    <g stroke-width="1pt">
      <path fill="#bd3d44" d="M0 0h640v480H0"/>
      <path fill="#fff" d="M0 55.3h640v55.4H0m0 55.3h640v55.4H0m0 55.3h640V277H0m0 55.4h640v55.3H0m0 55.4h640V443H0"/>
    </g>
    <path fill="#192f5d" d="M0 0h364.8v258.5H0"/>
    <path fill="#fff" d="M30.4 11l3.4 10.3h10.6l-8.6 6.3 3.3 10.3-8.7-6.4-8.6 6.3L25 27.6l-8.7-6.3h10.9zm60.8 0l3.3 10.3h10.8l-8.7 6.3 3.2 10.3-8.6-6.4-8.7 6.3 3.3-10.2-8.6-6.3h10.6zm60.8 0l3.3 10.3H166l-8.6 6.3 3.3 10.3-8.7-6.4-8.7 6.3 3.3-10.2-8.7-6.3h10.8zm60.8 0l3.3 10.3h10.8l-8.7 6.3 3.3 10.3-8.7-6.4-8.7 6.3 3.4-10.2-8.8-6.3h10.7zm60.8 0l3.3 10.3h10.7l-8.6 6.3 3.3 10.3-8.7-6.4-8.7 6.3 3.3-10.2-8.6-6.3h10.7zm60.8 0l3.3 10.3h10.8l-8.8 6.3 3.4 10.3-8.7-6.4-8.7 6.3 3.4-10.2-8.8-6.3h10.8zM60.8 43.5l3.3 10.2h10.8l-8.7 6.3 3.3 10.3-8.7-6.4-8.7 6.3 3.4-10.2-8.8-6.3h10.8zm60.8 0l3.3 10.2h10.8l-8.8 6.3 3.4 10.3-8.7-6.4-8.7 6.3 3.4-10.2-8.8-6.3h10.8zm60.8 0l3.3 10.2h10.8l-8.7 6.3 3.3 10.3-8.7-6.4-8.7 6.3 3.4-10.2-8.8-6.3h10.8zm60.8 0l3.3 10.2h10.7l-8.6 6.3 3.3 10.3-8.7-6.4-8.7 6.3 3.3-10.2-8.6-6.3h10.7zm60.8 0l3.3 10.2h10.8l-8.8 6.3 3.4 10.3-8.7-6.4-8.6 6.3 3.3-10.2-8.7-6.3h10.8zM30.4 76l3.4 10.2h10.6l-8.6 6.3 3.3 10.3-8.7-6.4-8.6 6.3L25 92.4l-8.7-6.3h10.9zm60.8 0l3.3 10.2h10.8l-8.7 6.3 3.2 10.3-8.6-6.4-8.7 6.3 3.3-10.2-8.6-6.3h10.6zm60.8 0l3.3 10.2H166l-8.6 6.3 3.3 10.3-8.7-6.4-8.7 6.3 3.3-10.2-8.7-6.3h10.8zm60.8 0l3.3 10.2h10.8l-8.7 6.3 3.3 10.3-8.7-6.4-8.7 6.3 3.4-10.2-8.8-6.3h10.7zm60.8 0l3.3 10.2h10.7l-8.6 6.3 3.3 10.3-8.7-6.4-8.7 6.3 3.3-10.2-8.6-6.3h10.7zm60.8 0l3.3 10.2h10.8l-8.8 6.3 3.4 10.3-8.7-6.4-8.7 6.3 3.4-10.2-8.8-6.3h10.8zM60.8 108.5l3.3 10.3h10.8l-8.7 6.2 3.3 10.3-8.7-6.4-8.7 6.3 3.4-10.2-8.8-6.3h10.8zm60.8 0l3.3 10.3h10.8l-8.8 6.2 3.4 10.3-8.7-6.4-8.7 6.3 3.4-10.2-8.8-6.3h10.8zm60.8 0l3.3 10.3h10.8l-8.7 6.2 3.3 10.3-8.7-6.4-8.7 6.3 3.4-10.2-8.8-6.3h10.8zm60.8 0l3.3 10.3h10.7l-8.6 6.2 3.3 10.3-8.7-6.4-8.7 6.3 3.3-10.2-8.6-6.3h10.7zm60.8 0l3.3 10.3h10.8l-8.8 6.2 3.4 10.3-8.7-6.4-8.6 6.3 3.3-10.2-8.7-6.3h10.8zM30.4 141l3.4 10.2h10.6l-8.6 6.3 3.3 10.3-8.7-6.4-8.6 6.3 3.2-10.3-8.7-6.2h10.9zm60.8 0l3.3 10.2h10.8l-8.7 6.3 3.3 10.3-8.7-6.4-8.7 6.3 3.3-10.3-8.6-6.2h10.6zm60.8 0l3.3 10.2H166l-8.6 6.3 3.3 10.3-8.7-6.4-8.7 6.3 3.3-10.3-8.7-6.2h10.8zm60.8 0l3.3 10.2h10.8l-8.7 6.3 3.3 10.3-8.7-6.4-8.7 6.3 3.4-10.3-8.8-6.2h10.7zm60.8 0l3.3 10.2h10.7l-8.6 6.3 3.3 10.3-8.7-6.4-8.7 6.3 3.3-10.3-8.6-6.2h10.7zm60.8 0l3.3 10.2h10.8l-8.8 6.3 3.4 10.3-8.7-6.4-8.7 6.3 3.4-10.3-8.8-6.2h10.8zM60.8 173.5l3.3 10.3h10.8l-8.7 6.2 3.3 10.3-8.7-6.4-8.7 6.4 3.4-10.3-8.8-6.3h10.8zm60.8 0l3.3 10.3h10.8l-8.8 6.2 3.4 10.3-8.7-6.4-8.7 6.4 3.4-10.3-8.8-6.3h10.8zm60.8 0l3.3 10.3h10.8l-8.7 6.2 3.3 10.3-8.7-6.4-8.7 6.4 3.4-10.3-8.8-6.3h10.8zm60.8 0l3.3 10.3h10.7l-8.6 6.2 3.3 10.3-8.7-6.4-8.7 6.4 3.3-10.3-8.6-6.3h10.7zm60.8 0l3.3 10.3h10.8l-8.8 6.2 3.4 10.3-8.7-6.4-8.6 6.4 3.3-10.3-8.7-6.3h10.8zM30.4 206l3.4 10.3h10.6l-8.6 6.3 3.3 10.2-8.7-6.4-8.6 6.3 3.2-10.2-8.7-6.3h10.9zm60.8 0l3.3 10.3h10.8l-8.7 6.3 3.3 10.2-8.7-6.4-8.7 6.3 3.3-10.2-8.6-6.3h10.6zm60.8 0l3.3 10.3H166l-8.6 6.3 3.3 10.2-8.7-6.4-8.7 6.3 3.3-10.2-8.7-6.3h10.8zm60.8 0l3.3 10.3h10.8l-8.7 6.3 3.3 10.2-8.7-6.4-8.7 6.3 3.4-10.2-8.8-6.3h10.7zm60.8 0l3.3 10.3h10.7l-8.6 6.3 3.3 10.2-8.7-6.4-8.7 6.3 3.3-10.2-8.6-6.3h10.7zm60.8 0l3.3 10.3h10.8l-8.8 6.3 3.4 10.2-8.7-6.4-8.7 6.3 3.4-10.2-8.8-6.3h10.8z"/>
  </g>
</svg>